<svg height="32" viewBox="0 0 32 32" width="32" xmlns="http://www.w3.org/2000/svg">
    <g style='fill: #e2e8f0;'>
        <path d="m15 2h2v5h-2z"/>
        <path d="m21.6675 6.8536h4.958v1.9998h-4.958z" transform="matrix(.70710678 -.70710678 .70710678 .70710678 1.5191 19.3744)"/>
        <path d="m25 15h5v2h-5z"/>
        <path d="m23.1466 21.6675h1.9998v4.958h-1.9998z" transform="matrix(.70710678 -.70710678 .70710678 .70710678 -10.0018 24.1465)"/>
        <path d="m15 25h2v5h-2z"/>
        <path d="m5.3745 23.1466h4.958v1.9998h-4.958z" transform="matrix(.70710678 -.70710678 .70710678 .70710678 -14.7739 12.6256)"/>
        <path d="m2 15h5v2h-5z"/>
        <path d="m6.8536 5.3745h1.9998v4.958h-1.9998z" transform="matrix(.70710678 -.70710678 .70710678 .70710678 -3.253 7.8535)"/>
        <path d="m16 10a6 6 0 1 0 6 6 6 6 0 0 0 -6-6z"/>
        <path d="m0 0h32v32h-32z" fill="none"/>
    </g>
</svg>