<svg height="48pt" viewBox="0 0 48 48" width="48pt" xmlns="http://www.w3.org/2000/svg" xmlns:xlink="http://www.w3.org/1999/xlink"><linearGradient id="a" gradientUnits="userSpaceOnUse" x1="0" x2="48" y1="24" y2="24"><stop offset="0" stop-color="#ffe031"/><stop offset=".98695652174" stop-color="#fc5252"/></linearGradient><path d="m34.709 12.301c-.634.02-1.226.265-1.676.715l-12.632 12.632-2.699-2.698c12.428-12.407 14.697-12.53 17.007-10.649zm-13.797 13.796 12.591-12.509c.695-.674 1.799-.674 2.494 0 .347.348.531.818.511 1.288-.021.491-.225.94-.593 1.267l-13.307 11.733zm.94 1.901-3.128.797c-.061.041-.122.041-.184 0-.04-.061-.04-.143 0-.204l1.901-1.901zm-7.972-1.308 3.332-3.332 2.514 2.576-5.703 1.226c-.123.021-.245-.061-.266-.184-.02-.082 0-.143.062-.204zm-10.323 17.312c-.081-.02-.163-.081-.184-.143-.02-.082-.02-.163 0-.225l2.678-2.698 3.475 3.455zm6.868-3.577c-.265.143-.408.43-.347.716l.572 2.453c.041.163-.041.327-.163.408-.123.103-.307.103-.409 0l-3.475-3.577 10.67-10.689 5.172-1.104 2.473 2.473c-4.415 3.679-9.28 6.806-14.472 9.28v.04zm20.03-14.704c-1.56 1.636-3.286 3.313-5.026 4.975l-2.371-2.371 13.307-11.712c.122-.102.245-.224.347-.368-.293 2.599-2.888 5.942-6.257 9.476zm5.358-13.359c-1.983-2.064-1.901-5.335.163-7.317 1.881-1.799 4.784-1.922 6.807-.287l-4.579 4.559c-.122.143-.122.347 0 .49l3.557 3.536c-2.003.981-4.415.572-5.969-1.022zm7.297 0c-.245.225-.49.45-.777.634l-3.413-3.414 4.354-4.353c1.88 2.023 1.819 5.171-.164 7.133zm-37.745 23.328c-.935.585-2.41-.078-3.291-1.48-.804-1.28-2.074-5.7-2.074-10.21 0-6.36 2.53-12.47 7.03-16.97s10.61-7.03 16.97-7.03c3.06 0 6.09.58 6.137.599 1.536.619 2.451 1.952 2.043 2.976-.408 1.024-1.802 1.429-3.11.905 0 0-2.52-.48-5.07-.48-5.3 0-10.39 2.11-14.14 5.86s-5.86 8.84-5.86 14.14c0 3.76 1.06 7.44 1.466 8.088.88 1.403.834 3.017-.101 3.602zm39.47-18.755c1.046-.356 2.271.471 2.735 1.845 0 0 .43 2.6.43 5.22 0 6.36-2.53 12.47-7.03 16.97s-10.61 7.03-16.97 7.03c-3.45 0-6.86-.74-8.173-1.344-1.003-.461-1.445-1.649-.987-2.651.458-1.002 1.645-1.443 2.65-.985.79.36 3.64.98 6.51.98 5.3 0 10.39-2.11 14.14-5.86s5.86-8.84 5.86-14.14c0-2.18-.35-4.35-.35-4.35-.392-1.142.139-2.359 1.185-2.715z" fill="url(#a)" fill-rule="evenodd"/></svg>