<svg id="Layer_5" data-name="Layer 5" xmlns="http://www.w3.org/2000/svg" xmlns:xlink="http://www.w3.org/1999/xlink" viewBox="0 0 537.3497 537.5176"><defs><style>.cls-1{fill:url(#viking_2);}.cls-2{fill:url(#viking_2-2);}.cls-3{fill:url(#viking_2-3);}.cls-4{fill:url(#viking_2-4);}.cls-5{fill:url(#viking_2-5);}.cls-6{fill:url(#viking_2-6);}.cls-7{fill:url(#viking_2-7);}.cls-8{fill:url(#viking_2-8);}.cls-9{fill:url(#viking_2-9);}.cls-10{fill:url(#viking_2-10);}.cls-11{fill:url(#viking_2-11);}.cls-12{fill:url(#viking_2-12);}.cls-13{fill:url(#viking_2-13);}.cls-14{fill:url(#viking_2-14);}.cls-15{fill:url(#viking_2-15);}.cls-16{fill:url(#viking_2-16);}.cls-17{fill:url(#viking_2-17);}.cls-18{fill:url(#viking_2-18);}.cls-19{fill:url(#viking_2-19);}.cls-20{fill:url(#viking_2-20);}.cls-21{fill:url(#viking_2-21);}.cls-22{fill:url(#viking_2-22);}.cls-23{fill:url(#viking_2-23);}.cls-24{fill:url(#viking_2-24);}.cls-25{fill:url(#viking_2-25);}.cls-26{fill:url(#viking_2-26);}.cls-27{fill:url(#viking_2-27);}.cls-28{fill:url(#viking_2-28);}.cls-29{fill:url(#viking_2-29);}.cls-30{fill:url(#viking_2-30);}.cls-31{fill:url(#viking_2-31);}.cls-32{fill:url(#viking_2-32);}.cls-33{fill:url(#viking_2-33);}.cls-34{fill:url(#viking_2-34);}.cls-35{fill:url(#viking_2-35);}.cls-36{fill:url(#viking_2-36);}</style><linearGradient id="viking_2" x1="275.8435" y1="180.6277" x2="331.9189" y2="180.6277" gradientTransform="translate(706.4747 368.5443) rotate(118.9387)" gradientUnits="userSpaceOnUse"><stop offset="0" stop-color="#4caec4"/><stop offset="0.1754" stop-color="#449db2"/><stop offset="0.5278" stop-color="#307383"/><stop offset="1" stop-color="#11313b"/></linearGradient><linearGradient id="viking_2-2" x1="254.9117" y1="120.2186" x2="299.325" y2="120.2186" gradientTransform="matrix(-0.2813, 0.9596, -0.9596, -0.2813, 657.3894, 324.7846)" xlink:href="#viking_2"/><linearGradient id="viking_2-3" x1="219.5977" y1="85.7696" x2="255.7637" y2="85.7696" gradientTransform="matrix(-0.2719, 0.9623, -0.9623, -0.2719, 660.7463, 340.0417)" xlink:href="#viking_2"/><linearGradient id="viking_2-4" x1="185.7112" y1="61.0474" x2="210.6734" y2="61.0474" gradientTransform="matrix(0.053, 0.9986, -0.9986, 0.053, 597.1247, 314.2438)" xlink:href="#viking_2"/><linearGradient id="viking_2-5" x1="275.8435" y1="180.6277" x2="331.9189" y2="180.6277" gradientTransform="translate(611.1553 593.3432) rotate(158.9387)" xlink:href="#viking_2"/><linearGradient id="viking_2-6" x1="254.9117" y1="120.2186" x2="299.325" y2="120.2186" gradientTransform="translate(601.682 528.2699) rotate(146.34)" xlink:href="#viking_2"/><linearGradient id="viking_2-7" x1="219.5977" y1="85.7696" x2="255.7637" y2="85.7696" gradientTransform="matrix(-0.8269, 0.5624, -0.5624, -0.8269, 594.4464, 542.1153)" xlink:href="#viking_2"/><linearGradient id="viking_2-8" x1="185.7112" y1="61.0474" x2="210.6734" y2="61.0474" gradientTransform="matrix(-0.6013, 0.7991, -0.7991, -0.6013, 562.292, 481.4579)" xlink:href="#viking_2"/><linearGradient id="viking_2-9" x1="275.8435" y1="180.6277" x2="331.9189" y2="180.6277" gradientTransform="translate(393.6374 704.2792) rotate(-161.0613)" xlink:href="#viking_2"/><linearGradient id="viking_2-10" x1="254.9117" y1="120.2186" x2="299.325" y2="120.2186" gradientTransform="matrix(-0.9939, -0.1104, 0.1104, -0.9939, 428.2087, 648.3408)" xlink:href="#viking_2"/><linearGradient id="viking_2-11" x1="219.5977" y1="85.7696" x2="255.7637" y2="85.7696" gradientTransform="translate(413.7663 654.2961) rotate(-174.2217)" xlink:href="#viking_2"/><linearGradient id="viking_2-12" x1="185.7112" y1="61.0474" x2="210.6734" y2="61.0474" gradientTransform="translate(428.1244 587.1614) rotate(166.96)" xlink:href="#viking_2"/><linearGradient id="viking_2-13" x1="275.8435" y1="180.6277" x2="331.9189" y2="180.6277" gradientTransform="matrix(-0.516, -0.8566, 0.8566, -0.516, 155.7027, 649.4439)" xlink:href="#viking_2"/><linearGradient id="viking_2-14" x1="254.9117" y1="120.2186" x2="299.325" y2="120.2186" gradientTransform="translate(218.1423 628.8146) rotate(-133.66)" xlink:href="#viking_2"/><linearGradient id="viking_2-15" x1="219.5977" y1="85.7696" x2="255.7637" y2="85.7696" gradientTransform="matrix(-0.6974, -0.7166, 0.7166, -0.6974, 203.2508, 624.0932)" xlink:href="#viking_2"/><linearGradient id="viking_2-16" x1="185.7112" y1="61.0474" x2="210.6734" y2="61.0474" gradientTransform="translate(257.4032 581.8942) rotate(-153.04)" xlink:href="#viking_2"/><linearGradient id="viking_2-17" x1="275.8435" y1="180.6277" x2="331.9189" y2="180.6277" gradientTransform="matrix(0.1554, -0.9879, 0.9879, 0.1554, 8.6812, 454.4958)" xlink:href="#viking_2"/><linearGradient id="viking_2-18" x1="254.9117" y1="120.2186" x2="299.325" y2="120.2186" gradientTransform="translate(69.773 478.8283) rotate(-93.66)" xlink:href="#viking_2"/><linearGradient id="viking_2-19" x1="219.5977" y1="85.7696" x2="255.7637" y2="85.7696" gradientTransform="matrix(-0.0736, -0.9973, 0.9973, -0.0736, 61.4003, 465.6394)" xlink:href="#viking_2"/><linearGradient id="viking_2-20" x1="185.7112" y1="61.0474" x2="210.6734" y2="61.0474" gradientTransform="translate(130.0084 468.1216) rotate(-113.04)" xlink:href="#viking_2"/><linearGradient id="viking_2-21" x1="275.8435" y1="180.6277" x2="331.9189" y2="180.6277" gradientTransform="translate(21.3661 210.6532) rotate(-41.0613)" xlink:href="#viking_2"/><linearGradient id="viking_2-22" x1="254.9117" y1="120.2186" x2="299.325" y2="120.2186" gradientTransform="translate(52.5245 268.562) rotate(-53.66)" xlink:href="#viking_2"/><linearGradient id="viking_2-23" x1="219.5977" y1="85.7696" x2="255.7637" y2="85.7696" gradientTransform="translate(54.5883 253.0769) rotate(-54.2217)" xlink:href="#viking_2"/><linearGradient id="viking_2-24" x1="185.7112" y1="61.0474" x2="210.6734" y2="61.0474" gradientTransform="translate(105.5496 299.0788) rotate(-73.04)" xlink:href="#viking_2"/><linearGradient id="viking_2-25" x1="275.8435" y1="180.6277" x2="331.9189" y2="180.6277" gradientTransform="matrix(0.9998, -0.0185, 0.0185, 0.9998, 187.8228, 32.0123)" xlink:href="#viking_2"/><linearGradient id="viking_2-26" x1="254.9117" y1="120.2186" x2="299.325" y2="120.2186" gradientTransform="translate(174.4684 96.4013) rotate(-13.66)" xlink:href="#viking_2"/><linearGradient id="viking_2-27" x1="219.5977" y1="85.7696" x2="255.7637" y2="85.7696" gradientTransform="translate(186.003 85.8656) rotate(-14.2217)" xlink:href="#viking_2"/><linearGradient id="viking_2-28" x1="185.7112" y1="61.0474" x2="210.6734" y2="61.0474" gradientTransform="matrix(0.8383, -0.5452, 0.5452, 0.8383, 195.4722, 153.8624)" xlink:href="#viking_2"/><linearGradient id="viking_2-29" x1="275.8435" y1="180.6277" x2="331.9189" y2="180.6277" gradientTransform="translate(430.1638 2.1618) rotate(38.9387)" xlink:href="#viking_2"/><linearGradient id="viking_2-30" x1="254.9117" y1="120.2186" x2="299.325" y2="120.2186" gradientTransform="translate(378.5453 42.9026) rotate(26.34)" xlink:href="#viking_2"/><linearGradient id="viking_2-31" x1="219.5977" y1="85.7696" x2="255.7637" y2="85.7696" gradientTransform="matrix(0.9005, 0.4349, -0.4349, 0.9005, 394.1535, 42.2461)" xlink:href="#viking_2"/><linearGradient id="viking_2-32" x1="185.7112" y1="61.0474" x2="210.6734" y2="61.0474" gradientTransform="translate(357.6998 100.4214) rotate(6.96)" xlink:href="#viking_2"/><linearGradient id="viking_2-33" x1="275.8436" y1="180.6281" x2="331.9189" y2="180.6281" gradientTransform="translate(634.996 135.0686) rotate(78.9387)" xlink:href="#viking_2"/><linearGradient id="viking_2-34" x1="254.9116" y1="120.219" x2="299.325" y2="120.219" gradientTransform="matrix(0.4013, 0.9159, -0.9159, 0.4013, 569.2663, 133.0981)" xlink:href="#viking_2"/><linearGradient id="viking_2-35" x1="219.5976" y1="85.77" x2="255.7636" y2="85.77" gradientTransform="translate(581.6449 142.628) rotate(65.7783)" xlink:href="#viking_2"/><linearGradient id="viking_2-36" x1="185.711" y1="61.0478" x2="210.6731" y2="61.0478" gradientTransform="translate(516.3255 163.7608) rotate(46.96)" xlink:href="#viking_2"/></defs><g id="_Radial_Repeat_" data-name="&lt;Radial Repeat&gt;"><path class="cls-1" d="M374.0356,558.7875c-7.6085-16.3641,5.9328-38.7437,22.9173-41.0033,11.3833-1.5143,21.5929,6.371,26.732,13.5494,1.6795,2.3459,8.9222,12.4628,5.3647,24.14-4.6022,15.1068-22.79,18.092-23.6122,18.2136C393.7084,575.4229,379.4077,570.3417,374.0356,558.7875Z" transform="translate(-81.6033 -84.8652)"/><path class="cls-2" d="M444.9642,570.6569c-8.708-11.3343-2.1074-30.9722,10.63-35.653,8.5373-3.1371,17.7911,1.1941,23.0036,5.8549,1.7034,1.5232,9.05,8.0919,8.3171,17.7329-.9475,12.472-14.49,17.9216-15.1047,18.1576C463.0444,580.1168,451.1127,578.66,444.9642,570.6569Z" transform="translate(-81.6033 -84.8652)"/><path class="cls-3" d="M498.1378,556.8088c-7.1812-9.16-1.9633-25.2028,8.3714-29.1159,6.9266-2.6226,14.4962.83,18.7778,4.5839,1.3992,1.2266,7.4333,6.5166,6.9139,14.3728-.6719,10.1631-11.6559,14.7086-12.1543,14.9057C512.9354,564.3673,503.2082,563.2762,498.1378,556.8088Z" transform="translate(-81.6033 -84.8652)"/><path class="cls-4" d="M539.1159,526.257c-6.7308-4.3854-6.8938-16.0283-1.0131-20.8857,3.9413-3.2555,9.6554-2.685,13.2883-1.186,1.1872.49,6.3072,2.6025,7.7169,7.8507,1.8238,6.7893-4.34,12.2044-4.622,12.4442C550.4663,527.9005,543.8684,529.3533,539.1159,526.257Z" transform="translate(-81.6033 -84.8652)"/></g><g id="_Radial_Repeat_2" data-name="&lt;Radial Repeat&gt;"><path class="cls-5" d="M234.2062,525.39c4.69-17.4262,29.4487-25.8658,43.912-16.6793,9.6936,6.157,12.446,18.76,11.7686,27.5624-.2214,2.8767-1.1761,15.2821-11.4076,21.9411-13.236,8.6143-29.0876-.79-29.7955-1.2252C238.5834,550.7792,230.8946,537.6944,234.2062,525.39Z" transform="translate(-81.6033 -84.8652)"/><path class="cls-6" d="M280.9112,580.0748c.6148-14.28,18.2941-25.0807,31.0607-20.4786,8.5564,3.0845,12.8612,12.3506,13.8583,19.2715.3258,2.2618,1.731,12.0157-5.0272,18.93-8.7427,8.9452-22.62,4.4145-23.2424,4.2C288.6807,598.9432,280.4771,590.1575,280.9112,580.0748Z" transform="translate(-81.6033 -84.8652)"/><path class="cls-7" d="M330.5459,603.6459c.3866-11.6327,14.6961-20.5685,25.1282-16.923,6.9918,2.4432,10.571,9.954,11.4381,15.5815.2834,1.8391,1.5055,9.77-3.9423,15.4544-7.0474,7.3535-18.3834,3.7752-18.8919,3.6058C337.023,618.9478,330.2729,611.8593,330.5459,603.6459Z" transform="translate(-81.6033 -84.8652)"/><path class="cls-8" d="M381.5753,606.5821c-2.3373-7.6859,5.0218-16.71,12.6489-16.6506,5.1118.0395,9.1224,4.1495,10.9418,7.633.5946,1.1384,3.1587,6.0478.8652,10.9743-2.967,6.3732-11.17,6.5593-11.54,6.5619C389.2137,615.137,383.2256,612.0088,381.5753,606.5821Z" transform="translate(-81.6033 -84.8652)"/></g><g id="_Radial_Repeat_3" data-name="&lt;Radial Repeat&gt;"><path class="cls-9" d="M148.5569,409.926c14.7943-10.3345,39.1853-.8851,44.36,15.449,3.4681,10.9474-2.5246,22.3712-8.7015,28.6787-2.0187,2.0614-10.7241,10.9508-22.8422,9.4751-15.6765-1.9089-21.7747-19.3022-22.0372-20.0907C135.59,432.1887,138.1112,417.2228,148.5569,409.926Z" transform="translate(-81.6033 -84.8652)"/><path class="cls-10" d="M149.1845,481.8382c9.65-10.544,30.1357-7.4537,36.9573,4.2779,4.5719,7.8628,1.9134,17.7282-1.7715,23.6708-1.2042,1.942-6.3974,10.3172-16.0192,11.27-12.4471,1.2327-20.1655-11.1581-20.5046-11.7222C143.0079,501.2864,142.3709,489.2829,149.1845,481.8382Z" transform="translate(-81.6033 -84.8652)"/><path class="cls-11" d="M172.0557,531.7992c7.7735-8.6626,24.479-6.31,30.1272,3.1884,3.7855,6.3659,1.7,14.42-1.2535,19.2884-.965,1.591-5.1268,8.452-12.9539,9.3047-10.1254,1.1031-16.5091-8.9247-16.79-9.3813C167.1816,547.6846,166.567,537.9156,172.0557,531.7992Z" transform="translate(-81.6033 -84.8652)"/><path class="cls-12" d="M209.2591,566.85c3.15-7.39,14.5877-9.5723,20.3925-4.6245,3.89,3.3161,4.3208,9.0425,3.4754,12.88-.2762,1.2543-1.4677,6.6633-6.3914,8.963-6.3694,2.975-12.7727-2.1551-13.0577-2.3909C209.6115,578.3129,207.0351,572.0675,209.2591,566.85Z" transform="translate(-81.6033 -84.8652)"/></g><g id="_Radial_Repeat_4" data-name="&lt;Radial Repeat&gt;"><path class="cls-13" d="M157.1668,266.4215c17.9759,1.593,30.5866,24.51,24.0512,40.3486-4.38,10.6155-16.3139,15.5146-25.1,16.376-2.8713.2815-15.2541,1.4955-23.5886-7.4243-10.7818-11.5391-4.273-28.7829-3.9673-29.5556C132.9236,275.141,144.4745,265.2968,157.1668,266.4215Z" transform="translate(-81.6033 -84.8652)"/><path class="cls-14" d="M111.4232,321.9128c14.17-1.8742,27.8765,13.6611,25.5611,27.0328-1.5517,8.9621-9.93,14.81-16.5722,16.9942-2.1709.7137-11.5325,3.7913-19.5157-1.6635-10.3274-7.0566-8.2754-21.51-8.1726-22.16C94.1906,332.8408,101.4183,323.2362,111.4232,321.9128Z" transform="translate(-81.6033 -84.8652)"/><path class="cls-15" d="M96.8292,374.8866c11.5231-1.6393,22.8079,10.9011,21.0294,21.8078-1.192,7.31-7.9672,12.1389-13.3586,13.97-1.7619.5984-9.36,3.1791-15.9042-1.1988-8.4656-5.6635-6.91-17.4486-6.8316-17.9788C82.8845,383.9224,88.6931,376.044,96.8292,374.8866Z" transform="translate(-81.6033 -84.8652)"/><path class="cls-16" d="M102.7988,425.6506c7.1633-3.6364,17.3278,2.0439,18.5941,9.5654.8487,5.041-2.5024,9.7044-5.6171,12.101-1.0178.7833-5.4074,4.161-10.6573,2.7578-6.7916-1.8153-8.3992-9.861-8.466-10.2249C95.7,434.6585,97.7411,428.2182,102.7988,425.6506Z" transform="translate(-81.6033 -84.8652)"/></g><g id="_Radial_Repeat_5" data-name="&lt;Radial Repeat&gt;"><path class="cls-17" d="M256.0048,162.0248c12.7464,12.7749,7.6761,38.4363-7.5113,46.3686-10.1789,5.3164-22.47,1.3985-29.7541-3.5893-2.38-1.63-12.6466-8.66-13.2977-20.85-.8422-15.77,15.228-24.7956,15.9589-25.191C231.8287,153.1211,247.0049,153.0048,256.0048,162.0248Z" transform="translate(-81.6033 -84.8652)"/><path class="cls-18" d="M185.2941,175.13c12.0594,7.6725,12.5734,28.3836,2.2046,37.1387-6.9494,5.8678-17.1266,4.9628-23.6188,2.3658-2.1217-.8487-11.2713-4.5087-13.88-13.8188-3.3754-12.0439,7.4869-21.7967,7.9835-22.2286C165.0687,172.4246,176.7792,169.7129,185.2941,175.13Z" transform="translate(-81.6033 -84.8652)"/><path class="cls-19" d="M140.0636,206.33c9.8808,6.1511,10.4647,23.0114,2.0916,30.2232-5.6118,4.8334-13.906,4.1777-19.2131,2.1149-1.7343-.6741-9.2138-3.5813-11.4127-11.1413-2.8446-9.78,5.9223-17.8081,6.3232-18.1638C123.5732,204.288,133.087,201.9864,140.0636,206.33Z" transform="translate(-81.6033 -84.8652)"/><path class="cls-20" d="M112.0061,249.0543c7.8248,1.8187,11.96,12.7038,8.0953,19.2795-2.59,4.4072-8.1548,5.8255-12.0813,5.6594-1.2832-.0543-6.8169-.2884-9.9366-4.7379-4.0359-5.7561-.0957-12.9529.0871-13.2745C100.7781,251.3919,106.4812,247.77,112.0061,249.0543Z" transform="translate(-81.6033 -84.8652)"/></g><g id="_Radial_Repeat_6" data-name="&lt;Radial Repeat&gt;"><path class="cls-21" d="M398.8237,145.5839c1.5528,17.98-18.8262,34.378-35.5592,30.6923-11.2148-2.47-18.1117-13.3719-20.4857-21.8752-.7759-2.7788-4.1216-14.7627,3.2154-24.5194,9.4915-12.6218,27.6036-9.2063,28.4176-9.0394C386.0269,123.2232,397.7273,132.8892,398.8237,145.5839Z" transform="translate(-81.6033 -84.8652)"/><path class="cls-22" d="M336.2321,110.1713c4.3064,13.6291-8.6127,29.8251-22.1834,29.867-9.0954.028-16.31-7.207-19.6138-13.3695-1.08-2.014-5.7362-10.699-1.7505-19.5081,5.156-11.3958,19.746-11.8848,20.404-11.8964C322.4778,95.0981,333.1916,100.5482,336.2321,110.1713Z" transform="translate(-81.6033 -84.8652)"/><path class="cls-23" d="M281.529,104.9978c3.6153,11.0634-6.775,24.3544-17.8248,24.4968-7.4058.0954-13.338-5.7383-16.0776-10.73-.8952-1.6312-4.7562-8.666-1.5811-15.8708,4.1074-9.32,15.9836-9.835,16.5194-9.85C270.2089,92.834,278.9764,97.1863,281.529,104.9978Z" transform="translate(-81.6033 -84.8652)"/><path class="cls-24" d="M232.5728,119.6918c4.8251,6.4229.9961,17.4194-6.1913,19.9726-4.817,1.7112-9.9914-.7793-12.8925-3.43-.9481-.8664-5.0367-4.6027-4.5665-10.0166.6083-7.0036,8.2527-9.984,8.5994-10.1129C222.4691,114.2653,229.166,115.1567,232.5728,119.6918Z" transform="translate(-81.6033 -84.8652)"/></g><g id="_Radial_Repeat_7" data-name="&lt;Radial Repeat&gt;"><path class="cls-25" d="M518.7978,224.7915c-10.3675,14.7711-36.5194,14.2338-46.9685.6546-7.0032-9.1011-5.2791-21.8855-1.6319-29.9253,1.1919-2.6274,6.3319-13.9582,18.2239-16.7162,15.384-3.5678,27.0632,10.6909,27.58,11.342C523.3681,199.4366,526.118,214.362,518.7978,224.7915Z" transform="translate(-81.6033 -84.8652)"/><path class="cls-26" d="M493.6127,157.4307c-5.4618,13.2086-25.769,17.3113-36.1917,8.62-6.9854-5.8249-7.8614-16.0046-6.4312-22.8491.4674-2.2368,2.4829-11.883,11.1985-16.0693,11.2748-5.4155,22.7657,3.5882,23.2773,4.0023C492.7651,137.0429,497.4691,148.1046,493.6127,157.4307Z" transform="translate(-81.6033 -84.8652)"/><path class="cls-27" d="M455.0331,118.3051c-4.3419,10.7989-20.8446,14.3017-29.4008,7.3081-5.7345-4.6873-6.5291-12.9693-5.4192-18.554.3627-1.825,1.927-9.6957,8.99-13.174,9.1375-4.5,18.566,2.74,18.9859,3.0731C454.18,101.7107,458.0988,110.68,455.0331,118.3051Z" transform="translate(-81.6033 -84.8652)"/><path class="cls-28" d="M408.0854,98.0929c-.4324,8.0218-10.434,13.9844-17.581,11.32-4.79-1.7856-7.153-7.0194-7.6712-10.9151-.1694-1.2731-.9-6.7634,2.94-10.6084,4.9679-4.974,12.74-2.3434,13.088-2.2193C403.8336,87.4414,408.3907,92.429,408.0854,98.0929Z" transform="translate(-81.6033 -84.8652)"/></g><g id="_Radial_Repeat_8" data-name="&lt;Radial Repeat&gt;"><path class="cls-29" d="M559.7893,362.5858c-17.4367,4.6513-37.1249-12.57-36.4008-29.6893.4853-11.4733,10.0237-20.1585,17.9855-23.973,2.6019-1.2466,13.8228-6.6226,24.7053-1.0913,14.0782,7.1556,13.86,25.5856,13.8367,26.4163C579.5882,346.1006,572.1008,359.3017,559.7893,362.5858Z" transform="translate(-81.6033 -84.8652)"/><path class="cls-30" d="M583.795,294.7959c-12.6743,6.6075-30.8676-3.3029-33.2653-16.66-1.607-8.9523,4.2653-17.3135,9.76-21.6374,1.7958-1.4131,9.54-7.5069,18.9077-5.1115,12.118,3.0988,15.133,17.3822,15.2588,18.0283C596.2508,278.633,592.744,290.1305,583.795,294.7959Z" transform="translate(-81.6033 -84.8652)"/><path class="cls-31" d="M579.3908,240.0254c-10.2675,5.4815-25.1608-2.443-27.22-13.3-1.38-7.2767,3.3349-14.1318,7.7749-17.6965,1.451-1.1649,7.7084-6.1888,15.3551-4.313,9.892,2.4265,12.4611,14.0329,12.5686,14.558C589.4041,226.7651,586.64,236.1551,579.3908,240.0254Z" transform="translate(-81.6033 -84.8652)"/><path class="cls-32" d="M556.4189,194.3646c-5.4875,5.8671-16.9819,4.0057-20.7443-2.629-2.5216-4.4468-.9675-9.9751,1.1395-13.2924.6886-1.0842,3.6582-5.76,9.0715-6.2365,7.0029-.6171,11.2653,6.3936,11.4525,6.7127C560.0085,183.472,560.2935,190.222,556.4189,194.3646Z" transform="translate(-81.6033 -84.8652)"/></g><g id="_Radial_Repeat_9" data-name="&lt;Radial Repeat&gt;"><path class="cls-33" d="M502.6185,494.4912c-16.3471-7.645-20.3592-33.4929-8.8007-46.1413,7.7467-8.4771,20.6363-8.9992,29.1873-6.8036,2.7945.7175,14.8457,3.812,19.6268,15.0444,6.185,14.5307-5.829,28.5085-6.3806,29.13C528.3818,494.5892,514.1606,499.8891,502.6185,494.4912Z" transform="translate(-81.6033 -84.8652)"/><path class="cls-34" d="M564.5825,457.9916c-13.9563-3.0852-21.523-22.3714-14.7739-34.1449,4.5234-7.8908,14.3964-10.5212,21.3853-10.3013,2.2839.0719,12.1336.3818,17.77,8.238,7.2911,10.1632.4195,23.043.1006,23.6187C584.5134,453.6166,574.4366,460.17,564.5825,457.9916Z" transform="translate(-81.6033 -84.8652)"/><path class="cls-35" d="M596.4144,413.2041c-11.3888-2.4008-17.704-18.0445-12.3024-27.6852,3.62-6.4613,11.6384-8.6819,17.331-8.5586,1.86.04,9.8831.214,14.5351,6.566,6.018,8.2173.5255,18.76.27,19.2311C612.6086,409.4825,604.4557,414.8992,596.4144,413.2041Z" transform="translate(-81.6033 -84.8652)"/><path class="cls-36" d="M608.1672,363.46c-7.975.9671-15.5838-7.8472-14.2012-15.3481.9266-5.0273,5.6706-8.2633,9.4171-9.45,1.2244-.3879,6.5044-2.0606,10.9579,1.0536,5.7611,4.0286,4.52,12.139,4.4582,12.5037C617.9185,357.4229,613.7981,362.7769,608.1672,363.46Z" transform="translate(-81.6033 -84.8652)"/></g></svg>